<?xml version="1.0" encoding="UTF-8"?><svg id="Layer_2" xmlns="http://www.w3.org/2000/svg" viewBox="0 0 443.9 414.85"><defs><style>.cls-1{fill:#f8ad21;}.cls-2{fill:#cf7a29;}.cls-3{fill:#271f19;}.cls-4{fill:#f6ce5e;}.cls-5{fill:#fff;}</style></defs><g id="Layer_1-2"><g id="RFxIHN"><path class="cls-3" d="M238.86,394.3c-5.09-4.57-8.96-9.99-13.71-14.86-46.79,7.36-95.27-2.17-136.89-24.16-5.64,2.55-10.7,6.73-16.72,9.2-16.72,6.86-50.31,7.99-64.2-5.16-21.12-19.99,8.6-46.68,23.41-59.72-1.97-6.83-5.89-12.77-8.17-19.52-17.98-53.22,6.61-120.6,42.31-161.26,26.26-29.91,65.38-47.34,104.79-51.71C190.62,31.06,252.53-10.9,295.08,2.58c25.25,8,15.1,37.22,15.74,57.26.17,5.19,1.23,13.56,2.32,18.68,4.65,21.98,23.35,35.99,21.76,60.31-.24,3.68-2.93,11.15-2.51,13.57.21,1.19,10.9,20.35,11.98,20.88,1.72.84,1.57-1.21,1.93-2.01,9.6-21.09,20.38-40.36,39.64-54.4,25.07-18.27,57.44-20.87,57.95,18.97.43,33.55-16.37,72.64-27.1,103.95,4.03,11.6,8.87,22.93,12.33,34.73,5.44,18.57,19.53,71.25-9.21,76.32s-59.36-22.72-74.55-44.53c-8.76,13.33-18.25,26.33-31.49,35.55,9.75,15.92,20.09,44.02,6.99,60.43-19.15,23.99-62.84,9.2-82-8ZM295.86,19.3c-6.87-10.67-32.63-4.6-43-1.5-20.12,6.03-47.59,24.99-61.03,40.97-6.12,7.28-4.74,7.53,4.03,8.53.65.07,1.35-.07,2,0,6.32.71,12.66,1.53,19,2,1.82.43,3.66.66,5,1,2.67.68,6.18,2.14,9,3,7,2.12,15.36,4.04,22,7,1.29.57,5.52,3.73,8,5,8.3,4.25,16.44,8.47,24,14,1.65,1.21,4.25,2.4,5,3,5.01,4.01,16.13,15.15,21,20.5.69.76,7.16,11.62,8.99,9.5-.09-2.4.37-4.88-.24-7.25-2-7.84-12.01-21.22-15.76-29.74-.58-1.33-1.75-3.33-2-4-6.71-18.11-4.06-35.34-4-54,0-2.96.19-6.05,0-9-.25-3.79.27-5.47-2-9ZM332.86,182.3c-5.62-12.81-12.35-25.43-21.02-36.48-50.26-64.04-127.91-86.29-202.19-46.23-20.35,10.97-42.16,34.18-54.21,53.79-19.14,31.18-33.06,73.54-23.58,109.92,2.43,17.47,14.68,36.8,26,50,.75.88,1.44,1.38,2,2,.31.35.68.66,1,1,33.53,35.91,86.72,53.52,135.54,52.04,6.67-.2,14.01-1.54,20.46-3.05-.43-5.48-4.64-24.71,1.03-27.54,1.31-.66,2.84.63,2.97.55,6.43,19.02,14.91,37.78,31.67,49.83,13.51,9.71,37.05,17.72,52.33,9.17,2.59-1.45,5.33-2.87,6.86-5.64,5.21-9.38.15-27.01-5.86-35.36-6.16-14.17-17.25-22.61-29.1-31.41-1.96.43-16.69-11.07-12.4-11.6,6.91-.52,14.18,1.27,20.49,4.01,6.94,3.01,12.89,8.23,18.97,12.6,4.17,1.15,13.68-9.47,16.54-12.59,8.48-9.25,17.56-21.87,24.71-32.29,2.47-3.6,5.59-7.49,6.78-11.72,2.26-1.55,3.85-4.46,6.99-4-.31,2.81.45,6.34,0,9-.93,5.52-6.65,10.45-4.22,16.72,5.24,13.55,29.48,33.7,42.96,39.04,14.08,5.58,25.52,8.27,26.26-10.76.73-18.8-6.79-43.53-13.25-61.25-2.74-7.5-6.93-14.61-8.8-22.21,8.69-22.14,17.43-44.19,22.56-67.53,3-13.63,7.73-33.86,3.49-47.01-2.96-9.18-7.2-9.09-16.21-6.71-13.57,3.58-31.61,20.92-40.04,32.97-5.6,8.01-19.29,34.39-19.44,43.42-.06,3.37,2.83,7.42,3.69,10.32,1.42,4.8,1.39,8.07,2,12.99-3.68,3.64-14.21-16.02-15.8-18.69-3.33-5.59-5.64-11.82-9.19-17.31ZM33.86,315.3c-8.97,7.64-31.15,28.27-12.52,37.05,1.66.78,3.21.55,4.52.95.47.14,1.37,1.23,2.89,1.57,14.79,3.27,34,1.81,46.09-8.07-8.22-6.79-16.84-13.01-24.01-20.97-2.15-2.39-9.69-13.42-10.97-14.1-2.73-1.46-4.69,2.46-6,3.57Z"/><path class="cls-1" d="M31.86,263.3c-10.08-72.6,45.35-155.52,117-172.5,79.04-18.73,144.01,29.67,184,91.5,3.55,5.49,5.87,11.72,9.19,17.31,1.59,2.67,12.12,22.33,15.8,18.69-.6-4.93-.58-8.19-2-12.99,4.81-31.21,29.26-67.52,59.31-79.19,2.76-1.07,11.2-4.74,12.69-.81,4.24,13.15-.49,33.38-3.49,47.01-5.13,23.34-13.87,45.39-22.56,67.53,1.87,7.61,6.07,14.71,8.8,22.21,6.47,17.72,13.98,42.44,13.25,61.25-2.93,1.58-7.88.28-11.03-.47-19.33-4.58-39.55-25-52-40-1.23-1.48-2.34-2.26-1.96-4.54.45-2.66-.32-6.19,0-9-3.14-.47-4.73,2.44-6.99,4-17.08,11.74-31.41,25.43-50.64,34.86-5.83,2.86-13.52,3.31-16.36,9.14-6.32-2.74-13.58-4.52-20.49-4.01-4.29.53,10.43,12.03,12.4,11.6,11.85,8.8,22.93,17.24,29.1,31.41,5.22,12.01,11.47,31.85-1,41-15.28,8.55-38.83.54-52.33-9.17-16.76-12.05-25.24-30.81-31.67-49.83.14-.09.12-1.84,1.46-3.01,15.95-13.96,28.1-21.02,39.96-40.08,25.94-41.69,27.4-110.2-4.9-148.93-1.88-2.25-10.65-11.82-13.51-8.98-.02,1.09-.17,2.23.19,3.29.59,1.74,10.32,13.14,12.66,17.34,32.4,58.22,16.65,138.1-42.19,172.53-37.72,22.07-90.72,17.58-128.86-1.48-8.03-4.01-15.77-10.66-23.81-13.69-.09-.45-.89-.76-1-1-.18-.4.16-1.39,0-2l-3,1c-11.32-13.2-23.57-32.53-26-50ZM401.85,160.31c-2.85-2.95-20.06,17.15-21.97,19.52-2.71,3.36-20.47,28.01-18.02,30.47,2.03.44,2.67-.46,4.04-1.45,3.84-2.79,31.91-39.25,34.6-44.4.71-1.37,1.81-2.26,1.36-4.13ZM69.86,168.3c-16.62,2.06-23.38,26.07-20.77,40.27.35,1.88,3.11,8.79,5.77,8.73,9.52,10.11,22.02,1.51,26.88-8.62,5.62-11.73,8.3-44.38-11.88-40.38ZM171.86,185.3c-4.63,9.48-3.8,13.51-2.46,23.54.12.91.17,3.54,1.46,1.46.38,1.43,3.53,7.46,4.56,8.94,6.47,9.28,17.44,11.38,27.47,6.6,22.58-10.77,16.81-55.45-9.52-56.61-11.08-.49-17.1,7.02-21.51,16.07ZM299.86,219.3c11.41-.02,13.98-15.38,12.88-24.38-1.14-9.42-9.55-22.13-19.88-22.61-1.43,5.58,2.22,5.14,4.05,7.48.61.78,3.44,4.57,3.79,5.13,7.58,12.34,3.74,22.02-.84,34.38ZM398.85,213.31c-1.74-.17-3.34-.01-5.02.47-3.46.99-23.26,10.97-25.75,13.22-.97.88-1.8.26-1.22,2.8,1.05,1.7,1.54,1.19,3,1.11,3.74-.19,9.41-2.57,12.86-4.23,1.54-.74,18.75-11.17,16.12-13.37ZM318.86,214.31c-.85,5.29,3.57,8.32,5.49,13,2.85,6.95,3.31,14.28,1.66,21.64-.71,3.18-6.31,13.07-6.15,13.83.74,3.67,6.46-.41,8-1.99,6.96-7.13,8.14-22.96,5.06-32.04-1.82-5.36-7.81-14.89-14.04-14.45ZM101.86,238.3c-10.04-1.99-24.28-11.7-33.53-4.03-11.23,9.3,2.26,33.22,8.72,42.35,11.06,15.64,21.04,21.28,39.07,25.75.88.22.4,1.78,2.18,2.01,14.74,1.92,29.36-2.18,41.57-10.08,5.96-3.86,8.04-6.05,12-12,.15-.23-.15-.76,0-1,2.14.15,5.12-4.34,5.89-5.82,3.98-7.62,6.81-18.09,6.11-26.7l-1,.52c-.16-2.36-2.09-7.76-3.57-9.93-7.73-11.35-17.39-4.52-27.16-2.31-2.54.57-5.23.58-8.27,1.24-4.47-1.09-10.71,2-14.5,2h-15c-2.11,0-9.81-1.47-12.5-2ZM290.86,298.3c14.52.9,24.87-20.02,25.07-32.5.11-6.81-4.47-19.32-11.79-21.29s.12,7.08,1.2,9.8c5.34,13.46,1.34,25.24-7.84,35.64-2.06,2.33-7.36,3.97-6.64,8.35ZM400.85,279.3c.84-.74-3.13-5.74-3.96-6.53-3.68-3.54-26.97-18.98-31.03-15.46-.36,1.76.91,2.46,1.98,3.51,4.07,3.96,22.22,15.17,27.62,17.38,1.81.74,3.35,1.44,5.39,1.1ZM288.85,385.3c.45-2.04-.46-2.67-1.45-4.04-5.32-7.35-13.53-15.04-19.52-22.48-4.16-5.16-7.81-11.97-12.04-16.96-2.09-2.46-5.53-6.77-8.97-6.52-3.1,3.22,15.76,28.77,19.02,32.47,2.37,2.69,20.17,20.31,22.97,17.52ZM296.85,360.3c2.63-6.81-23.76-22.16-24.99-20.99.31,1.96,2.69,5.12,4,6.49,2.2,2.29,14.76,13.67,16.74,14.26,1.4.41,2.83.3,4.25.24Z"/><path class="cls-1" d="M61.86,315.3c.13.63-.32,1.13-1,1-.32-.34-.69-.65-1-1-.12-.69.33-1.15,1-1,.17.04.54.83,1,1Z"/><path class="cls-2" d="M57.86,313.3l3-1c.16.61-.18,1.6,0,2-.67-.15-1.12.31-1,1-.56-.62-1.25-1.12-2-2Z"/><path class="cls-2" d="M61.86,315.3c-.46-.17-.83-.96-1-1,.11.24.91.55,1,1Z"/><path class="cls-2" d="M220.86,338.3c-.13.08-1.65-1.21-2.97-.55-5.67,2.84-1.46,22.06-1.03,27.54-6.45,1.51-13.79,2.85-20.46,3.05-48.82,1.48-102.01-16.13-135.54-52.04.68.13,1.13-.37,1-1,8.04,3.03,15.78,9.68,23.81,13.69,38.14,19.06,91.14,23.55,128.86,1.48,58.83-34.42,74.59-114.3,42.19-172.53-2.34-4.2-12.07-15.61-12.66-17.34-.36-1.06-.22-2.21-.19-3.29,2.86-2.84,11.63,6.73,13.51,8.98,32.31,38.73,30.84,107.24,4.9,148.93-11.85,19.06-24.01,26.12-39.96,40.08-1.33,1.17-1.32,2.92-1.46,3.01Z"/><path class="cls-1" d="M295.86,19.3c2.27,3.53,1.75,5.21,2,9l-12,11.99,12-2.99c-.06,18.66-2.71,35.89,4,54-5.82.92-12.64,3.93-17,8-7.56-5.53-15.7-9.75-24-14,4.86-8.5,14.07-14.79,21.02-21.48,1.08-1.04,2.34-1.76,1.98-3.51-11.77,3.51-23.19,10.56-30.99,20-6.64-2.96-15-4.88-22-7,6.84-12.52,19.82-19.38,29.9-28.6,1.11-1.01,2.51-1.47,2.09-3.4-16.77,2.29-30.81,16.46-41,28.99-1.34-.34-3.18-.57-5-1-5.63-1.33-13.41-4.6-19-2-.65-.07-1.35.07-2,0-2.18-3.35,4.14-8.71,6.48-10.97,24.66-23.77,58.58-40.32,93.52-37.03Z"/><path class="cls-4" d="M31.86,263.3c-9.47-36.37,4.44-78.74,23.58-109.92,12.04-19.61,33.86-42.82,54.21-53.79,74.28-40.05,151.93-17.81,202.19,46.23,8.67,11.05,15.4,23.66,21.02,36.48-39.99-61.83-104.96-110.23-184-91.5-71.65,16.98-127.08,99.9-117,172.5Z"/><path class="cls-2" d="M423.86,323.3c-.74,19.03-12.18,16.34-26.26,10.76-13.48-5.34-37.72-25.49-42.96-39.04-2.43-6.28,3.29-11.2,4.22-16.72-.38,2.28.73,3.05,1.96,4.54,12.45,15,32.68,35.42,52,40,3.16.75,8.11,2.05,11.03.47Z"/><path class="cls-2" d="M351.86,273.3c-1.19,4.24-4.31,8.12-6.78,11.72-7.15,10.42-16.23,23.04-24.71,32.29-2.86,3.12-12.37,13.74-16.54,12.59-6.08-4.38-12.03-9.59-18.97-12.6,2.84-5.83,10.53-6.29,16.36-9.14,19.23-9.43,33.56-23.12,50.64-34.86Z"/><path class="cls-4" d="M355.86,205.3c-.86-2.9-3.74-6.96-3.69-10.32.15-9.03,13.84-35.42,19.44-43.42,8.43-12.04,26.47-29.38,40.04-32.97,9.02-2.38,13.25-2.47,16.21,6.71-1.49-3.93-9.93-.27-12.69.81-30.04,11.67-54.5,47.98-59.31,79.19Z"/><path class="cls-1" d="M25.86,353.3c-1.32-.4-2.86-.17-4.52-.95-18.63-8.77,3.55-29.41,12.52-37.05.26,1.95,1.48,3.41,2.59,4.91,2.35,3.16,12.63,13.7,12.27,16.34-1.22,8.98-15.03,15.25-22.86,16.75Z"/><path class="cls-2" d="M25.86,353.3c7.83-1.5,21.64-7.76,22.86-16.75.36-2.64-9.92-13.18-12.27-16.34-1.11-1.5-2.34-2.96-2.59-4.91,1.31-1.11,3.27-5.03,6-3.57,1.28.69,8.82,11.71,10.97,14.1,7.17,7.96,15.79,14.19,24.01,20.97-12.09,9.89-31.31,11.34-46.09,8.07-1.52-.34-2.42-1.43-2.89-1.57Z"/><path class="cls-4" d="M295.86,19.3c-34.94-3.29-68.86,13.25-93.52,37.03-2.34,2.26-8.66,7.62-6.48,10.97-8.77-1-10.14-1.25-4.03-8.53,13.44-15.98,40.9-34.94,61.03-40.97,10.36-3.11,36.13-9.17,43,1.5Z"/><path class="cls-1" d="M303.86,95.3c3.75,8.52,13.75,21.9,15.76,29.74.61,2.37.15,4.86.24,7.25-1.84,2.12-8.3-8.74-8.99-9.5-4.87-5.35-15.99-16.49-21-20.5l14-7Z"/><path class="cls-2" d="M221.86,70.3c10.18-12.53,24.22-26.7,41-28.99.42,1.93-.98,2.39-2.09,3.4-10.09,9.22-23.06,16.08-29.9,28.6-2.82-.86-6.33-2.32-9-3Z"/><path class="cls-2" d="M252.86,80.3c7.8-9.44,19.22-16.49,30.99-20,.36,1.75-.9,2.47-1.98,3.51-6.94,6.69-16.15,12.99-21.02,21.48-2.48-1.27-6.71-4.43-8-5Z"/><path class="cls-2" d="M301.86,91.3c.25.67,1.42,2.67,2,4l-14,7c-.75-.6-3.35-1.79-5-3,4.36-4.07,11.18-7.08,17-8Z"/><path class="cls-2" d="M297.86,37.3l-12,2.99,12-11.99c.19,2.95,0,6.04,0,9Z"/><path class="cls-4" d="M304.86,397.3c12.47-9.15,6.22-28.99,1-41,6.02,8.35,11.08,25.98,5.86,35.36-1.53,2.76-4.27,4.18-6.86,5.64Z"/><path class="cls-4" d="M216.86,69.3c-6.34-.47-12.68-1.29-19-2,5.59-2.6,13.37.67,19,2Z"/><path class="cls-3" d="M101.86,238.3c2.74,2.51,8.79,2.84,12.45,3.05,11.82.68,18.44-.66,29.55-3.05,3.04-.65,5.73-.66,8.27-1.24,9.77-2.21,19.44-9.04,27.16,2.31,1.48,2.17,3.41,7.57,3.57,9.93.79,12.01-4.92,22.47-11,32-.15.24.15.77,0,1l-12,12c-12.2,7.9-26.83,12-41.57,10.08-1.78-.23-1.3-1.79-2.18-2.01-18.03-4.47-28-10.12-39.07-25.75-6.46-9.13-19.95-33.05-8.72-42.35,9.25-7.66,23.5,2.05,33.53,4.03ZM164.59,266.56c-1.8-1.88-13.2-4.19-16.21-4.31-8.12-.31-15.25,2.45-21.84,6.21-8.49,4.83-16.06,10.95-18.68,20.83,8.69,2.17,20.43,5.08,29.3,2.81,1.81-.47,2.87-2.04,4.46-2.54,5.98-1.87,7.66-.97,13.25-5.75,3.31-2.83,13.62-13.17,9.72-17.25Z"/><path class="cls-3" d="M170.86,210.3c-2.12-7.99-.71-17.09,1-25,4.42-9.05,10.43-16.56,21.51-16.07,26.33,1.16,32.1,45.84,9.52,56.61-10.03,4.78-21,2.68-27.47-6.6-1.03-1.48-4.18-7.5-4.56-8.94ZM202.62,194.06c6.42-6.56-3.41-20.09-9.79-12.29-6.03,7.37,5.09,17.1,9.79,12.29Z"/><path class="cls-3" d="M54.86,217.3c-2.15-2.28-4.58-9.42-4.89-12.61-1.21-12.51,6.26-33.69,19.89-36.39,20.17-4,17.5,28.65,11.88,40.38-4.85,10.13-17.35,18.73-26.88,8.62ZM74.56,178.43c-4.42,1.25-4.92,10.33-.71,12.37,9.37,4.55,9.27-14.8.71-12.37Z"/><path class="cls-2" d="M290.86,298.3c-.71-4.38,4.59-6.02,6.64-8.35,9.19-10.4,13.18-22.18,7.84-35.64-1.08-2.73-8.64-11.8-1.2-9.8s11.9,14.48,11.79,21.29c-.2,12.48-10.55,33.4-25.07,32.5Z"/><path class="cls-2" d="M288.85,385.3c-2.8,2.79-20.6-14.83-22.97-17.52-3.26-3.7-22.12-29.25-19.02-32.47,3.44-.25,6.88,4.05,8.97,6.52,4.24,4.99,7.88,11.8,12.04,16.96,6,7.44,14.2,15.12,19.52,22.48.99,1.37,1.9,2,1.45,4.04Z"/><path class="cls-2" d="M299.86,219.3c4.57-12.36,8.42-22.03.84-34.38-.34-.56-3.18-4.35-3.79-5.13-1.83-2.35-5.48-1.9-4.05-7.48,10.33.47,18.74,13.18,19.88,22.61,1.09,9.01-1.48,24.36-12.88,24.38Z"/><path class="cls-2" d="M401.85,160.31c.45,1.87-.64,2.77-1.36,4.13-2.69,5.16-30.76,41.61-34.6,44.4-1.37,1-2.01,1.89-4.04,1.45-2.45-2.46,15.31-27.11,18.02-30.47,1.91-2.37,19.12-22.47,21.97-19.52Z"/><path class="cls-2" d="M318.86,214.31c6.24-.44,12.23,9.09,14.04,14.45,3.08,9.08,1.9,24.91-5.06,32.04-1.54,1.58-7.25,5.66-8,1.99-.15-.76,5.44-10.65,6.15-13.83,1.66-7.36,1.2-14.69-1.66-21.64-1.92-4.68-6.34-7.71-5.49-13Z"/><path class="cls-2" d="M400.85,279.3c-2.04.34-3.58-.35-5.39-1.1-5.39-2.21-23.55-13.43-27.62-17.38-1.07-1.05-2.34-1.75-1.98-3.51,4.06-3.53,27.35,11.92,31.03,15.46.83.8,4.8,5.79,3.96,6.53Z"/><path class="cls-2" d="M398.85,213.31c2.63,2.2-14.59,12.63-16.12,13.37-3.45,1.66-9.12,4.04-12.86,4.23-1.46.08-1.95.58-3-1.11-.58-2.54.24-1.92,1.22-2.8,2.48-2.25,22.29-12.23,25.75-13.22,1.69-.48,3.29-.63,5.02-.47Z"/><path class="cls-2" d="M296.85,360.3c-1.42.06-2.85.17-4.25-.24-1.99-.59-14.54-11.96-16.74-14.26-1.31-1.37-3.69-4.53-4-6.49,1.23-1.17,27.62,14.18,24.99,20.99Z"/><path class="cls-4" d="M143.86,238.3c-11.11,2.39-17.73,3.72-29.55,3.05-3.66-.21-9.71-.54-12.45-3.05,2.69.53,10.39,2,12.5,2h15c3.79,0,10.03-3.09,14.5-2Z"/><path class="cls-4" d="M69.86,168.3c-13.63,2.71-21.1,23.88-19.89,36.39.31,3.19,2.74,10.33,4.89,12.61-2.65.06-5.42-6.85-5.77-8.73-2.61-14.2,4.15-38.21,20.77-40.27Z"/><path class="cls-4" d="M170.86,210.3c-1.3,2.08-1.34-.56-1.46-1.46-1.34-10.03-2.16-14.05,2.46-23.54-1.71,7.91-3.12,17.01-1,25Z"/><path class="cls-4" d="M182.86,249.3l1-.52c.7,8.61-2.12,19.08-6.11,26.7-.77,1.48-3.75,5.97-5.89,5.82,6.08-9.53,11.79-19.99,11-32Z"/><path class="cls-4" d="M159.86,294.3l12-12c-3.96,5.95-6.04,8.14-12,12Z"/><path class="cls-2" d="M164.59,266.56c3.9,4.08-6.41,14.42-9.72,17.25-5.59,4.78-7.27,3.89-13.25,5.75-1.59.5-2.65,2.07-4.46,2.54-8.87,2.28-20.61-.64-29.3-2.81,2.62-9.88,10.19-16,18.68-20.83,6.6-3.75,13.73-6.52,21.84-6.21,3.01.12,14.41,2.43,16.21,4.31Z"/><path class="cls-5" d="M202.62,194.06c-4.7,4.81-15.82-4.91-9.79-12.29,6.38-7.8,16.21,5.73,9.79,12.29Z"/><path class="cls-5" d="M74.56,178.43c8.56-2.42,8.66,16.93-.71,12.37-4.21-2.05-3.71-11.12.71-12.37Z"/></g></g></svg>